HIERARCHY
ROOT Hips
{
  OFFSET -0.0702116 97.7615 1.17104
  CHANNELS 6 Xposition Yposition Zposition Zrotation Xrotation Yrotation
  JOINT Spine
  {
    OFFSET 0 10.1816 0.1315
    CHANNELS 6 Xposition Yposition Zposition Zrotation Xrotation Yrotation
    JOINT Spine1
    {
      OFFSET 0 10.0835 -1.0008
      CHANNELS 6 Xposition Yposition Zposition Zrotation Xrotation Yrotation
      JOINT Spine2
      {
        OFFSET 0 9.1 -1.3734
        CHANNELS 6 Xposition Yposition Zposition Zrotation Xrotation Yrotation
        JOINT Neck
        {
          OFFSET 0 16.6717 -2.5162
          CHANNELS 6 Xposition Yposition Zposition Zrotation Xrotation Yrotation
          JOINT Head
          {
            OFFSET 0 9.6179 1.685
            CHANNELS 6 Xposition Yposition Zposition Zrotation Xrotation Yrotation
            JOINT HeadTop_End
            {
              OFFSET 0 17.8152 2.585
              CHANNELS 6 Xposition Yposition Zposition Zrotation Xrotation Yrotation
              End Site
              {
                OFFSET 0 0 0
              }
            }
            JOINT LeftEye
            {
              OFFSET 3.0676 6.4095 9.2836
              CHANNELS 6 Xposition Yposition Zposition Zrotation Xrotation Yrotation
              End Site
              {
                OFFSET 0 0 0
              }
            }
            JOINT RightEye
            {
              OFFSET -3.0676 6.4095 9.2835
              CHANNELS 6 Xposition Yposition Zposition Zrotation Xrotation Yrotation
              End Site
              {
                OFFSET 0 0 0
              }
            }
          }
        }
        JOINT LeftShoulder
        {
          OFFSET 4.5704 10.946 -2.628
          CHANNELS 6 Xposition Yposition Zposition Zrotation Xrotation Yrotation
          JOINT LeftArm
          {
            OFFSET 10.5924 -0.5246 -2.2321
            CHANNELS 6 Xposition Yposition Zposition Zrotation Xrotation Yrotation
            JOINT LeftForeArm
            {
              OFFSET 27.8415 -0.0001 0
              CHANNELS 6 Xposition Yposition Zposition Zrotation Xrotation Yrotation
              JOINT LeftHand
              {
                OFFSET 28.3288 0 0
                CHANNELS 6 Xposition Yposition Zposition Zrotation Xrotation Yrotation
                JOINT LeftHandThumb1
                {
                  OFFSET 2.4661 -1.575 2.6824
                  CHANNELS 6 Xposition Yposition Zposition Zrotation Xrotation Yrotation
                  JOINT LeftHandThumb2
                  {
                    OFFSET 3.2298 -1.8647 1.8647
                    CHANNELS 6 Xposition Yposition Zposition Zrotation Xrotation Yrotation
                    JOINT LeftHandThumb3
                    {
                      OFFSET 2.6526 -1.5315 1.5315
                      CHANNELS 6 Xposition Yposition Zposition Zrotation Xrotation Yrotation
                      End Site
                      {
                        OFFSET 1.9546 -1.1285 1.1285
                      }
                    }
                  }
                }
                JOINT LeftHandIndex1
                {
                  OFFSET 9.1093 -0.5171 2.2601
                  CHANNELS 6 Xposition Yposition Zposition Zrotation Xrotation Yrotation
                  JOINT LeftHandIndex2
                  {
                    OFFSET 3.6764 0 0
                    CHANNELS 6 Xposition Yposition Zposition Zrotation Xrotation Yrotation
                    JOINT LeftHandIndex3
                    {
                      OFFSET 2.8831 0 0
                      CHANNELS 6 Xposition Yposition Zposition Zrotation Xrotation Yrotation
                      End Site
                      {
                        OFFSET 2.3927 0 0
                      }
                    }
                  }
                }
                JOINT LeftHandMiddle1
                {
                  OFFSET 9.5334 0 0
                  CHANNELS 6 Xposition Yposition Zposition Zrotation Xrotation Yrotation
                  JOINT LeftHandMiddle2
                  {
                    OFFSET 3.6982 0 0
                    CHANNELS 6 Xposition Yposition Zposition Zrotation Xrotation Yrotation
                    JOINT LeftHandMiddle3
                    {
                      OFFSET 2.9509 0 0
                      CHANNELS 6 Xposition Yposition Zposition Zrotation Xrotation Yrotation
                      End Site
                      {
                        OFFSET 2.8339 0 0
                      }
                    }
                  }
                }
                JOINT LeftHandRing1
                {
                  OFFSET 9.1045 -0.0439 -1.8651
                  CHANNELS 6 Xposition Yposition Zposition Zrotation Xrotation Yrotation
                  JOINT LeftHandRing2
                  {
                    OFFSET 3.154 0 0
                    CHANNELS 6 Xposition Yposition Zposition Zrotation Xrotation Yrotation
                    JOINT LeftHandRing3
                    {
                      OFFSET 2.9377 0 0
                      CHANNELS 6 Xposition Yposition Zposition Zrotation Xrotation Yrotation
                      End Site
                      {
                        OFFSET 2.6475 0 0
                      }
                    }
                  }
                }
                JOINT LeftHandPinky1
                {
                  OFFSET 8.0778 -0.4887 -3.8061
                  CHANNELS 6 Xposition Yposition Zposition Zrotation Xrotation Yrotation
                  JOINT LeftHandPinky2
                  {
                    OFFSET 3.6 0 0
                    CHANNELS 6 Xposition Yposition Zposition Zrotation Xrotation Yrotation
                    JOINT LeftHandPinky3
                    {
                      OFFSET 2.1142 0 0
                      CHANNELS 6 Xposition Yposition Zposition Zrotation Xrotation Yrotation
                      End Site
                      {
                        OFFSET 1.9757 0 0
                      }
                    }
                  }
                }
              }
            }
          }
        }
        JOINT RightShoulder
        {
          OFFSET -4.57 10.9462 -2.628
          CHANNELS 6 Xposition Yposition Zposition Zrotation Xrotation Yrotation
          JOINT RightArm
          {
            OFFSET -10.5928 -0.5248 -2.2321
            CHANNELS 6 Xposition Yposition Zposition Zrotation Xrotation Yrotation
            JOINT RightForeArm
            {
              OFFSET -27.8415 0 0
              CHANNELS 6 Xposition Yposition Zposition Zrotation Xrotation Yrotation
              JOINT RightHand
              {
                OFFSET -28.3288 0 0.0001
                CHANNELS 6 Xposition Yposition Zposition Zrotation Xrotation Yrotation
                JOINT RightHandPinky1
                {
                  OFFSET -8.0767 -0.4885 -3.806
                  CHANNELS 6 Xposition Yposition Zposition Zrotation Xrotation Yrotation
                  JOINT RightHandPinky2
                  {
                    OFFSET -3.6 0 0.0001
                    CHANNELS 6 Xposition Yposition Zposition Zrotation Xrotation Yrotation
                    JOINT RightHandPinky3
                    {
                      OFFSET -2.1142 0 0
                      CHANNELS 6 Xposition Yposition Zposition Zrotation Xrotation Yrotation
                      End Site
                      {
                        OFFSET -1.9757 0 0
                      }
                    }
                  }
                }
                JOINT RightHandRing1
                {
                  OFFSET -9.1036 -0.0439 -1.8651
                  CHANNELS 6 Xposition Yposition Zposition Zrotation Xrotation Yrotation
                  JOINT RightHandRing2
                  {
                    OFFSET -3.154 0 0
                    CHANNELS 6 Xposition Yposition Zposition Zrotation Xrotation Yrotation
                    JOINT RightHandRing3
                    {
                      OFFSET -2.9377 0 0
                      CHANNELS 6 Xposition Yposition Zposition Zrotation Xrotation Yrotation
                      End Site
                      {
                        OFFSET -2.6475 0 0
                      }
                    }
                  }
                }
                JOINT RightHandMiddle1
                {
                  OFFSET -9.5325 0 0
                  CHANNELS 6 Xposition Yposition Zposition Zrotation Xrotation Yrotation
                  JOINT RightHandMiddle2
                  {
                    OFFSET -3.6982 0 0
                    CHANNELS 6 Xposition Yposition Zposition Zrotation Xrotation Yrotation
                    JOINT RightHandMiddle3
                    {
                      OFFSET -2.9509 0 0
                      CHANNELS 6 Xposition Yposition Zposition Zrotation Xrotation Yrotation
                      End Site
                      {
                        OFFSET -2.8339 0 0.0001
                      }
                    }
                  }
                }
                JOINT RightHandIndex1
                {
                  OFFSET -9.1083 -0.5168 2.2601
                  CHANNELS 6 Xposition Yposition Zposition Zrotation Xrotation Yrotation
                  JOINT RightHandIndex2
                  {
                    OFFSET -3.6764 0 0
                    CHANNELS 6 Xposition Yposition Zposition Zrotation Xrotation Yrotation
                    JOINT RightHandIndex3
                    {
                      OFFSET -2.8831 0 0
                      CHANNELS 6 Xposition Yposition Zposition Zrotation Xrotation Yrotation
                      End Site
                      {
                        OFFSET -2.3927 0 0
                      }
                    }
                  }
                }
                JOINT RightHandThumb1
                {
                  OFFSET -2.4648 -1.5727 2.6826
                  CHANNELS 6 Xposition Yposition Zposition Zrotation Xrotation Yrotation
                  JOINT RightHandThumb2
                  {
                    OFFSET -3.2298 -1.8647 1.8647
                    CHANNELS 6 Xposition Yposition Zposition Zrotation Xrotation Yrotation
                    JOINT RightHandThumb3
                    {
                      OFFSET -2.6526 -1.5314 1.5314
                      CHANNELS 6 Xposition Yposition Zposition Zrotation Xrotation Yrotation
                      End Site
                      {
                        OFFSET -1.9546 -1.1285 1.1285
                      }
                    }
                  }
                }
              }
            }
          }
        }
      }
    }
  }
  JOINT LeftUpLeg
  {
    OFFSET 8.2078 -6.7517 -1.5996
    CHANNELS 6 Xposition Yposition Zposition Zrotation Xrotation Yrotation
    JOINT LeftLeg
    {
      OFFSET 0 -44.3705 0.2846
      CHANNELS 6 Xposition Yposition Zposition Zrotation Xrotation Yrotation
      JOINT LeftFoot
      {
        OFFSET 0 -44.4279 -2.9822
        CHANNELS 6 Xposition Yposition Zposition Zrotation Xrotation Yrotation
        JOINT LeftToeBase
        {
          OFFSET 0 -8.7287 10.7106
          CHANNELS 6 Xposition Yposition Zposition Zrotation Xrotation Yrotation
          End Site
          {
            OFFSET 0 -0.0007 9.2781
          }
        }
      }
    }
  }
  JOINT RightUpLeg
  {
    OFFSET -8.2078 -6.7517 -1.5996
    CHANNELS 6 Xposition Yposition Zposition Zrotation Xrotation Yrotation
    JOINT RightLeg
    {
      OFFSET 0 -44.3705 0.2862
      CHANNELS 6 Xposition Yposition Zposition Zrotation Xrotation Yrotation
      JOINT RightFoot
      {
        OFFSET 0 -44.4277 -2.9838
        CHANNELS 6 Xposition Yposition Zposition Zrotation Xrotation Yrotation
        JOINT RightToeBase
        {
          OFFSET 0 -8.7287 10.7106
          CHANNELS 6 Xposition Yposition Zposition Zrotation Xrotation Yrotation
          End Site
          {
            OFFSET 0 -0.0007 9.2781
          }
        }
      }
    }
  }
}
MOTION
Frames:	4
Frame Time:	0.0333333
-9.1658 86.2791 0.941283 13.8511 1.84661 13.2815 1.77636e-015 10.1816 0.1315 3.07707 6.04965 2.37359 0 10.0835 -1.0008 8.46574 12.2294 4.03941 7.10543e-015 9.1 -1.3734 8.46574 12.2294 4.0394 -7.10543e-015 16.6717 -2.5162 -1.69653 -9.17424 0.132844 2.13163e-014 9.6179 1.685 -5.80808 -24.8989 11.293 -3.55271e-015 17.8152 2.585 -5.96354e-016 5.96354e-015 -0 3.0676 6.4095 9.2836 -5.96354e-016 5.96354e-015 -0 -3.0676 6.4095 9.2835 -5.96354e-016 5.96354e-015 -0 4.5704 10.946 -2.628 -7.94127 10.553 -3.95301 10.5924 -0.5246 -2.2321 -20.9369 4.41366 -5.79503 27.8415 -0.0001 1.42109e-014 0.190055 -0.22233 -58.589 28.3288 0 0 13.159 14.3836 -14.2627 2.4661 -1.575 2.6824 -11.6603 10.333 -11.2878 3.2298 -1.8647 1.8647 1.94708 -1.05989 0.220215 2.6526 -1.5315 1.5315 -8.22731e-005 -1.61771e-006 -7.29866e-005 9.1093 -0.5171 2.2601 -10.5768 7.44092 -8.36854 3.6764 0 0 -10.6361 -0.0893922 0.656543 2.8831 0 -1.42109e-014 -3.18055e-015 -3.18055e-015 -7.15625e-015 9.5334 1.42109e-014 0 -4.21084 1.11175 7.22652 3.6982 0 1.42109e-014 -15.9671 0.0374517 -0.817697 2.9509 0 1.42109e-014 1.17796e-007 -4.38488e-006 5.12334e-006 9.1045 -0.0439 -1.8651 -7.9012 0.125254 11.1609 3.154 0 1.42109e-014 -23.8826 1.00048 -2.71495 2.9377 -1.42109e-014 0 -2.38542e-015 6.36111e-015 -1.98785e-015 8.0778 -0.4887 -3.8061 -14.3877 -6.83702 27.2691 3.6 -1.42109e-014 -1.42109e-014 -28.9862 2.24739 -5.79414 2.1142 0 0 -1.59028e-015 3.18055e-015 -1.59028e-015 -4.57 10.9462 -2.628 -2.98173 -4.15523 5.16731 -10.5928 -0.5248 -2.2321 48.0923 -14.8574 8.86375 -27.8415 0 0 -0.116175 -0.177937 83.5666 -28.3288 7.10543e-015 0.0001 -8.90972 41.7964 5.79908 -8.0767 -0.4885 -3.806 28.3985 -15.571 -18.8449 -3.6 0 0.0001 12.8172 0.91301 5.05659 -2.1142 0 7.10543e-015 6.22642e-007 1.45616e-008 -1.57385e-006 -9.1036 -0.0439 -1.8651 17.8876 -5.05994 -12.7662 -3.154 0 0 16.2081 0.386678 2.20064 -2.9377 0 3.55271e-015 1.62463e-006 -1.3373e-006 -2.8869e-006 -9.5325 0 -7.10543e-015 3.39486 -1.83429 -1.56355 -3.6982 0 -7.10543e-015 21.4457 0.058453 0.844983 -2.9509 0 0 -1.75732e-006 -4.80486e-006 -0.00203092 -9.1083 -0.5168 2.2601 6.01485 11.6248 12.4366 -3.6764 0 0 4.07664 -0.0334941 -0.645222 -2.8831 0 -3.55271e-015 2.72947e-006 1.4726e-006 1.12442e-007 -2.4648 -1.5727 2.6826 9.18598 -2.91716 13.0385 -3.2298 -1.8647 1.8647 -2.12084 -1.20075 -0.265082 -2.6526 -1.5314 1.5314 -0.00123176 3.53352e-006 -0.00123758 8.2078 -6.7517 -1.5996 4.62684 -41.4076 -2.04202 -3.55271e-015 -44.3705 0.2846 -2.79039 53.2584 3.75875 -3.55271e-015 -44.4279 -2.9822 -15.3594 -6.49812 -13.7369 0 -8.7287 10.7106 -0.667091 -1.17358 -0.0361215 -8.2078 -6.7517 -1.5996 -55.5482 -18.2901 -29.9192 0 -44.3705 0.2862 5.69863 61.36 0.894339 -7.10543e-015 -44.4277 -2.9838 14.1896 -17.6298 -12.6393 -7.10543e-015 -8.7287 10.7106 0.427675 -3.72589 -0.147774 
-7.37925 87.6936 0.716838 12.1201 1.77197 13.8183 -3.55271e-015 10.1816 0.1315 2.68168 6.36662 1.87194 3.55271e-015 10.0835 -1.0008 7.5988 12.8225 3.1111 0 9.1 -1.3734 7.5988 12.8225 3.11109 0 16.6717 -2.5162 -4.13064 -9.25737 -1.4508 0 9.6179 1.685 -2.80162 -26.8015 0.158382 -1.42109e-014 17.8152 2.585 -1.2424e-015 -2.98177e-015 -3.18055e-015 3.0676 6.4095 9.2836 -1.2424e-015 -2.98177e-015 -3.18055e-015 -3.0676 6.4095 9.2835 -1.2424e-015 -2.98177e-015 -3.18055e-015 4.5704 10.946 -2.628 -7.16859 10.7855 -5.8354 10.5924 -0.5246 -2.2321 -16.488 -3.17563 -7.19442 27.8415 -0.0001 0 0.20122 -0.210527 -64.3882 28.3288 1.42109e-014 -7.10543e-015 17.5594 18.7198 -17.0377 2.4661 -1.575 2.6824 -12.2139 10.4429 -10.7717 3.2298 -1.8647 1.8647 1.94708 -1.05989 0.220215 2.6526 -1.5315 1.5315 -8.22731e-005 -1.61771e-006 -7.29866e-005 9.1093 -0.5171 2.2601 -10.5768 7.44092 -8.36854 3.6764 0 0 -10.6361 -0.0893922 0.656543 2.8831 7.10543e-015 1.42109e-014 9.37955e-032 7.95139e-016 -6.75868e-015 9.5334 0 0 -4.21084 1.11175 7.22652 3.6982 0 0 -15.9671 0.0374517 -0.817697 2.9509 -1.42109e-014 1.42109e-014 1.17796e-007 -4.38488e-006 5.12334e-006 9.1045 -0.0439 -1.8651 -7.9012 0.125254 11.1609 3.154 0 0 -23.8826 1.00048 -2.71495 2.9377 0 -1.42109e-014 -3.18055e-015 0 -7.95139e-015 8.0778 -0.4887 -3.8061 -14.3877 -6.83702 27.2691 3.6 0 1.42109e-014 -28.9862 2.24739 -5.79414 2.1142 0 -2.84217e-014 -2.75869e-031 3.18055e-015 4.96962e-015 -4.57 10.9462 -2.628 -0.550399 -3.94954 4.84724 -10.5928 -0.5248 -2.2321 54.2023 -20.2303 12.4834 -27.8415 7.10543e-015 3.55271e-015 -0.0990875 -0.174383 76.9575 -28.3288 0 0.0001 -14.9043 39.6314 5.75911 -8.0767 -0.4885 -3.806 28.3985 -15.571 -18.8449 -3.6 0 0.0001 12.8172 0.91301 5.05659 -2.1142 0 0 6.22642e-007 1.45616e-008 -1.57385e-006 -9.1036 -0.0439 -1.8651 17.8876 -5.05994 -12.7662 -3.154 0 0 16.2081 0.386678 2.20064 -2.9377 0 7.10543e-015 1.62463e-006 -1.3373e-006 -2.8869e-006 -9.5325 -1.42109e-014 -7.10543e-015 3.39486 -1.83429 -1.56355 -3.6982 -1.42109e-014 0 21.4457 0.058453 0.844983 -2.9509 0 0 -1.75732e-006 -4.80486e-006 -0.00203092 -9.1083 -0.5168 2.2601 6.01485 11.6248 12.4366 -3.6764 0 1.77636e-015 4.07664 -0.0334941 -0.645222 -2.8831 -1.42109e-014 -1.77636e-015 2.72947e-006 1.4726e-006 1.12442e-007 -2.4648 -1.5727 2.6826 9.18598 -2.91716 13.0385 -3.2298 -1.8647 1.8647 -2.12084 -1.20075 -0.265082 -2.6526 -1.5314 1.5314 -0.00123176 3.53352e-006 -0.00123758 8.2078 -6.7517 -1.5996 4.74716 -41.2548 -2.39147 -7.10543e-015 -44.3705 0.2846 -2.69184 52.0085 3.51205 0 -44.4279 -2.9822 -14.6354 -3.98223 -13.6862 -3.55271e-015 -8.7287 10.7106 -0.560785 -2.76025 -0.053511 -8.2078 -6.7517 -1.5996 -52.0295 -18.7189 -26.343 7.10543e-015 -44.3705 0.2862 5.01165 58.4553 1.25379 7.10543e-015 -44.4277 -2.9838 11.2694 -12.0109 -17.9902 0 -8.7287 10.7106 0.422354 -4.80237 -0.136445 
-5.73958 89.2333 0.398788 11.0589 1.99627 13.5419 1.77636e-015 10.1816 0.1315 1.95622 6.69689 1.42925 0 10.0835 -1.0008 6.25098 13.4507 2.35822 0 9.1 -1.3734 6.25097 13.4507 2.35821 7.10543e-015 16.6717 -2.5162 -5.69975 -9.57783 -2.36574 -7.10543e-015 9.6179 1.685 -0.348006 -27.7002 -6.26896 -3.55271e-015 17.8152 2.585 1.51573e-015 -1.39149e-015 -0 3.0676 6.4095 9.2836 1.51573e-015 -1.39149e-015 -0 -3.0676 6.4095 9.2835 1.51573e-015 -1.39149e-015 -0 4.5704 10.946 -2.628 -6.8433 11.0689 -8.02922 10.5924 -0.5246 -2.2321 -17.0542 -12.6703 -8.19176 27.8415 -0.0001 -1.42109e-014 0.200949 -0.199142 -68.8204 28.3288 0 0 22.4778 21.7549 -20.733 2.4661 -1.575 2.6824 -12.1193 10.4578 -10.7391 3.2298 -1.8647 1.8647 1.94708 -1.05989 0.220215 2.6526 -1.5315 1.5315 -8.22731e-005 -1.61771e-006 -7.29866e-005 9.1093 -0.5171 2.2601 -10.5768 7.44092 -8.36854 3.6764 2.84217e-014 -1.42109e-014 -10.6361 -0.0893922 0.656543 2.8831 1.42109e-014 1.42109e-014 9.54166e-015 -7.25564e-015 6.95746e-015 9.5334 1.42109e-014 -1.42109e-014 -4.21084 1.11175 7.22652 3.6982 -1.42109e-014 -1.42109e-014 -15.9671 0.0374517 -0.817697 2.9509 -1.42109e-014 0 1.17796e-007 -4.38488e-006 5.12334e-006 9.1045 -0.0439 -1.8651 -7.9012 0.125254 11.1609 3.154 1.42109e-014 1.42109e-014 -23.8826 1.00048 -2.71495 2.9377 -1.42109e-014 1.42109e-014 -3.18055e-015 4.77083e-015 4.77083e-015 8.0778 -0.4887 -3.8061 -14.3877 -6.83702 27.2691 3.6 0 0 -28.9862 2.24739 -5.79414 2.1142 -1.42109e-014 0 1.05934e-030 -6.36111e-015 9.54166e-015 -4.57 10.9462 -2.628 0.9893 -3.84418 4.8394 -10.5928 -0.5248 -2.2321 58.8826 -22.8169 14.9413 -27.8415 -7.10543e-015 3.55271e-015 -0.0857075 -0.176498 72.2722 -28.3288 7.10543e-015 0.0001 -19.2518 38.4443 4.05136 -8.0767 -0.4885 -3.806 28.3985 -15.571 -18.8449 -3.6 0 0.0001 12.8172 0.91301 5.05659 -2.1142 0 0 6.22642e-007 1.45616e-008 -1.57385e-006 -9.1036 -0.0439 -1.8651 17.8876 -5.05994 -12.7662 -3.154 0 0 16.2081 0.386678 2.20064 -2.9377 0 7.10543e-015 1.62463e-006 -1.3373e-006 -2.8869e-006 -9.5325 -1.42109e-014 -1.42109e-014 3.39486 -1.83429 -1.56355 -3.6982 -1.42109e-014 7.10543e-015 21.4457 0.058453 0.844983 -2.9509 0 7.10543e-015 -1.75732e-006 -4.80486e-006 -0.00203092 -9.1083 -0.5168 2.2601 6.01485 11.6248 12.4366 -3.6764 1.42109e-014 -7.10543e-015 4.07664 -0.0334941 -0.645222 -2.8831 0 3.55271e-015 2.72947e-006 1.4726e-006 1.12442e-007 -2.4648 -1.5727 2.6826 9.18598 -2.91716 13.0385 -3.2298 -1.8647 1.8647 -2.12084 -1.20075 -0.265082 -2.6526 -1.5314 1.5314 -0.00123176 3.53352e-006 -0.00123758 8.2078 -6.7517 -1.5996 4.53245 -40.575 -2.65229 3.55271e-015 -44.3705 0.2846 -2.46236 49.6604 3.30401 3.55271e-015 -44.4279 -2.9822 -14.8089 -0.859834 -13.4221 0 -8.7287 10.7106 0.0744368 -5.26307 -0.0281154 -8.2078 -6.7517 -1.5996 -49.3276 -20.1384 -23.4563 0 -44.3705 0.2862 4.62639 56.6454 1.36625 7.10543e-015 -44.4277 -2.9838 7.22746 -8.39472 -21.407 0 -8.7287 10.7106 0.42985 -3.29705 -0.15239 
-4.35593 90.6836 0.0984731 10.0652 2.42689 12.2445 -1.77636e-015 10.1816 0.1315 1.13704 6.93769 1.1106 -1.77636e-015 10.0835 -1.0008 4.65759 13.9123 1.90919 3.55271e-015 9.1 -1.3734 4.65759 13.9123 1.90918 7.10543e-015 16.6717 -2.5162 -6.28776 -9.94462 -2.47394 -3.55271e-015 9.6179 1.685 1.59567 -28.6094 -7.30211 -3.55271e-015 17.8152 2.585 -2.95692e-015 4.96962e-017 1.59028e-015 3.0676 6.4095 9.2836 -2.95692e-015 4.96962e-017 1.59028e-015 -3.0676 6.4095 9.2835 -2.95692e-015 4.96962e-017 1.59028e-015 4.5704 10.946 -2.628 -7.15722 11.4043 -10.2388 10.5924 -0.5246 -2.2321 -20.2863 -20.768 -9.31366 27.8415 -0.0001 -7.10543e-015 0.189715 -0.186722 -72.4074 28.3288 0 7.10543e-015 25.5859 22.9866 -23.3596 2.4661 -1.575 2.6824 -12.0492 10.4892 -10.6402 3.2298 -1.8647 1.8647 1.94708 -1.05989 0.220215 2.6526 -1.5315 1.5315 -8.22731e-005 -1.61771e-006 -7.29866e-005 9.1093 -0.5171 2.2601 -10.5768 7.44092 -8.36854 3.6764 1.42109e-014 -1.42109e-014 -10.6361 -0.0893922 0.656543 2.8831 1.42109e-014 0 3.41388e-032 -8.94531e-016 2.18663e-015 9.5334 -1.42109e-014 0 -4.21084 1.11175 7.22652 3.6982 -1.42109e-014 0 -15.9671 0.0374517 -0.817697 2.9509 0 -1.42109e-014 1.17796e-007 -4.38488e-006 5.12334e-006 9.1045 -0.0439 -1.8651 -7.9012 0.125254 11.1609 3.154 0 0 -23.8826 1.00048 -2.71495 2.9377 0 0 -4.41391e-032 -1.59028e-015 -1.59028e-015 8.0778 -0.4887 -3.8061 -14.3877 -6.83702 27.2691 3.6 0 0 -28.9862 2.24739 -5.79414 2.1142 0 0 3.18055e-015 3.18055e-015 -1.59028e-015 -4.57 10.9462 -2.628 1.36953 -3.81157 4.77967 -10.5928 -0.5248 -2.2321 60.8734 -22.3485 14.847 -27.8415 -7.10543e-015 1.77636e-015 -0.0825493 -0.181147 69.3097 -28.3288 -7.10543e-015 0.0001 -19.7335 38.5399 2.75707 -8.0767 -0.4885 -3.806 28.3985 -15.571 -18.8449 -3.6 0 0.0001 12.8172 0.91301 5.05659 -2.1142 -7.10543e-015 7.10543e-015 6.22642e-007 1.45616e-008 -1.57385e-006 -9.1036 -0.0439 -1.8651 17.8876 -5.05994 -12.7662 -3.154 0 -3.55271e-015 16.2081 0.386678 2.20064 -2.9377 0 7.10543e-015 1.62463e-006 -1.3373e-006 -2.8869e-006 -9.5325 0 7.10543e-015 3.39486 -1.83429 -1.56355 -3.6982 1.42109e-014 3.55271e-015 21.4457 0.058453 0.844983 -2.9509 0 0 -1.75732e-006 -4.80486e-006 -0.00203092 -9.1083 -0.5168 2.2601 6.01485 11.6248 12.4366 -3.6764 0 1.77636e-015 4.07664 -0.0334941 -0.645222 -2.8831 1.42109e-014 5.32907e-015 2.72947e-006 1.4726e-006 1.12442e-007 -2.4648 -1.5727 2.6826 9.18598 -2.91716 13.0385 -3.2298 -1.8647 1.8647 -2.12084 -1.20075 -0.265082 -2.6526 -1.5314 1.5314 -0.00123176 3.53352e-006 -0.00123758 8.2078 -6.7517 -1.5996 5.00447 -39.6881 -2.20976 -3.55271e-015 -44.3705 0.2846 -2.22831 46.9947 3.1109 7.10543e-015 -44.4279 -2.9822 -15.3229 1.66761 -12.7122 3.55271e-015 -8.7287 10.7106 0.228353 -7.62266 -0.00908416 -8.2078 -6.7517 -1.5996 -46.821 -22.3806 -22.2198 0 -44.3705 0.2862 4.44864 55.8992 1.29539 0 -44.4277 -2.9838 5.59478 -8.28347 -18.9554 7.10543e-015 -8.7287 10.7106 0.438488 -1.62687 -0.169941 
